<svg width="400" height="400" viewBox="0 0 400 400" fill="none" xmlns="http://www.w3.org/2000/svg">
<rect width="400" height="400" fill="white"/>
<path d="M96.6103 192.335C92.6071 192.335 88.9647 191.311 85.683 189.263C82.4246 187.215 79.8295 184.224 77.8977 180.291C75.9659 176.357 75 171.574 75 165.942C75 160.286 76.0008 155.48 78.0024 151.523C80.004 147.567 82.7038 144.553 86.1019 142.481C89.5233 140.386 93.3403 139.339 97.553 139.339C101.044 139.339 104 139.921 106.421 141.085C108.864 142.225 110.843 143.703 112.356 145.518C113.892 147.334 114.997 149.242 115.672 151.244C116.37 153.246 116.719 155.108 116.719 156.83C116.719 156.9 116.719 156.969 116.719 157.039C116.719 157.109 116.719 157.179 116.719 157.249H107.782C107.782 157.179 107.782 157.109 107.782 157.039C107.782 156.969 107.782 156.9 107.782 156.83C107.782 155.62 107.573 154.433 107.154 153.269C106.735 152.105 106.095 151.046 105.234 150.092C104.372 149.138 103.302 148.381 102.022 147.823C100.742 147.264 99.252 146.985 97.553 146.985C95.2488 146.985 93.0843 147.625 91.0594 148.905C89.0578 150.185 87.4286 152.222 86.1717 155.014C84.9382 157.784 84.3214 161.427 84.3214 165.942C84.3214 169.363 84.6705 172.272 85.3688 174.67C86.067 177.067 87.0096 179.01 88.1966 180.5C89.4069 181.99 90.7801 183.083 92.3162 183.782C93.8756 184.457 95.5164 184.794 97.2388 184.794C99.5662 184.794 101.498 184.398 103.034 183.607C104.593 182.816 105.804 181.827 106.665 180.64C107.549 179.453 108.108 178.289 108.341 177.148V173.134H97.3435V166.221H116.58V191.567H111.273L110.505 185.841C110.342 186.26 109.958 186.831 109.353 187.552C108.771 188.274 107.933 189.007 106.839 189.752C105.746 190.473 104.349 191.078 102.65 191.567C100.974 192.079 98.9611 192.335 96.6103 192.335Z" fill="#20BF55"/>
<path d="M125.8 191.567V154.491H134.982V166.815L132.853 165.628C133.085 164.022 133.516 162.509 134.144 161.089C134.773 159.646 135.611 158.389 136.658 157.319C137.705 156.225 138.974 155.375 140.463 154.77C141.953 154.165 143.652 153.862 145.56 153.862C147.073 153.862 148.26 153.979 149.121 154.211C150.006 154.421 150.553 154.595 150.762 154.735L149.086 163.149C148.854 162.986 148.377 162.788 147.655 162.555C146.957 162.299 146.014 162.171 144.827 162.171C142.942 162.171 141.359 162.497 140.079 163.149C138.822 163.777 137.822 164.638 137.077 165.732C136.332 166.803 135.797 167.99 135.471 169.293C135.145 170.573 134.982 171.854 134.982 173.134V191.567H125.8Z" fill="#20BF55"/>
<path d="M174.095 192.3C170.185 192.3 166.74 191.486 163.761 189.856C160.782 188.204 158.443 185.923 156.744 183.014C155.068 180.104 154.23 176.776 154.23 173.029C154.23 169.258 155.068 165.942 156.744 163.079C158.443 160.193 160.782 157.935 163.761 156.306C166.74 154.677 170.185 153.862 174.095 153.862C178.005 153.862 181.449 154.677 184.429 156.306C187.408 157.935 189.735 160.193 191.411 163.079C193.11 165.942 193.959 169.258 193.959 173.029C193.959 176.776 193.11 180.104 191.411 183.014C189.735 185.923 187.408 188.204 184.429 189.856C181.449 191.486 178.005 192.3 174.095 192.3ZM174.095 184.794C176.213 184.794 178.063 184.305 179.646 183.328C181.228 182.35 182.462 180.989 183.346 179.243C184.231 177.474 184.673 175.403 184.673 173.029C184.673 170.655 184.231 168.607 183.346 166.884C182.462 165.139 181.228 163.789 179.646 162.835C178.063 161.88 176.213 161.403 174.095 161.403C172 161.403 170.15 161.88 168.544 162.835C166.961 163.789 165.728 165.139 164.843 166.884C163.959 168.607 163.516 170.655 163.516 173.029C163.516 175.403 163.959 177.474 164.843 179.243C165.728 180.989 166.961 182.35 168.544 183.328C170.15 184.305 172 184.794 174.095 184.794Z" fill="#20BF55"/>
<path d="M230.622 191.567L221.999 154.491H229.016L237.43 188.669H235.929L241.305 154.491H250.836L243.225 191.567H230.622ZM205.067 191.567L197.421 154.491H206.952L212.363 188.669H210.862L219.206 154.491H226.223L217.74 191.567H205.067Z" fill="#20BF55"/>
<path d="M273.824 192.265C272.498 192.265 271.148 192.137 269.775 191.881C268.401 191.625 267.145 191.148 266.004 190.45C264.864 189.752 263.944 188.728 263.246 187.378C262.548 186.028 262.199 184.247 262.199 182.036C262.199 181.524 262.199 181.012 262.199 180.5C262.199 179.965 262.199 179.418 262.199 178.859V161.822H253.436V154.491H256.997C258.207 154.491 259.161 154.444 259.86 154.351C260.558 154.235 261.07 153.979 261.396 153.583C261.722 153.187 261.931 152.571 262.024 151.733C262.141 150.872 262.199 149.685 262.199 148.172V142.272H271.415V154.491H282.448V161.822H271.415V176.695C271.415 177.137 271.415 177.579 271.415 178.021C271.415 178.44 271.415 178.847 271.415 179.243C271.415 180.965 271.625 182.35 272.044 183.398C272.463 184.445 273.452 184.969 275.011 184.969C275.756 184.969 276.454 184.899 277.106 184.759C277.781 184.62 278.281 184.48 278.607 184.34V191.532C278.165 191.695 277.525 191.858 276.687 192.021C275.849 192.184 274.895 192.265 273.824 192.265Z" fill="#20BF55"/>
<path d="M315.634 191.567V178.196C315.634 177.637 315.634 176.939 315.634 176.101C315.634 175.263 315.634 174.414 315.634 173.553C315.634 172.691 315.634 171.982 315.634 171.423C315.634 168.351 315.029 166 313.819 164.371C312.632 162.718 310.595 161.892 307.709 161.892C305.778 161.892 304.125 162.276 302.752 163.044C301.402 163.789 300.366 164.836 299.645 166.186C298.923 167.536 298.563 169.095 298.563 170.864L295.211 169.084C295.211 166.128 295.874 163.51 297.201 161.229C298.551 158.925 300.413 157.121 302.787 155.817C305.161 154.514 307.884 153.862 310.956 153.862C315.448 153.862 318.881 155.201 321.255 157.877C323.629 160.53 324.816 164.231 324.816 168.979C324.816 170.189 324.816 171.632 324.816 173.308C324.816 174.961 324.816 176.823 324.816 178.894V191.567H315.634ZM289.381 191.567V137H298.563V191.567H289.381Z" fill="#20BF55"/>
<path d="M117.069 244.457C117.069 246.645 116.661 248.868 115.847 251.126C115.032 253.383 113.787 255.478 112.111 257.41C110.459 259.318 108.364 260.854 105.827 262.018C103.29 263.182 100.311 263.764 96.8896 263.764C92.258 263.764 88.3014 262.635 85.0197 260.377C81.7612 258.096 79.2709 254.966 77.5486 250.986C75.8495 247.006 75 242.433 75 237.266C75 232.075 75.8495 227.49 77.5486 223.51C79.2709 219.53 81.7612 216.412 85.0197 214.154C88.3014 211.896 92.258 210.768 96.8896 210.768C100.73 210.768 104.012 211.501 106.735 212.967C109.458 214.433 111.634 216.319 113.263 218.623C114.892 220.927 115.986 223.336 116.545 225.849C116.894 227.316 117.069 228.712 117.069 230.039H107.817C107.817 229.364 107.77 228.666 107.677 227.944C107.421 226.175 106.828 224.569 105.897 223.126C104.989 221.66 103.779 220.508 102.266 219.67C100.753 218.809 98.9611 218.378 96.8896 218.378C94.4225 218.378 92.2464 219.065 90.3611 220.438C88.4992 221.811 87.0329 223.894 85.9623 226.687C84.8916 229.48 84.3563 233.006 84.3563 237.266C84.3563 241.478 84.8916 244.993 85.9623 247.809C87.0329 250.625 88.4992 252.732 90.3611 254.128C92.2464 255.524 94.4225 256.223 96.8896 256.223C98.6585 256.223 100.218 255.897 101.568 255.245C102.918 254.593 104.058 253.721 104.989 252.627C105.92 251.51 106.618 250.253 107.084 248.856C107.573 247.46 107.817 245.994 107.817 244.457H117.069Z" fill="#20BF55"/>
<path d="M134.343 208.429V262.996H125.301V208.429H134.343Z" fill="#20BF55"/>
<path d="M143.559 262.996V225.919H152.636V262.996H143.559ZM148.132 219.077C146.643 219.077 145.339 218.681 144.222 217.89C143.128 217.075 142.581 215.946 142.581 214.503C142.581 213.083 143.128 211.978 144.222 211.187C145.339 210.395 146.643 210 148.132 210C149.599 210 150.879 210.395 151.973 211.187C153.067 211.978 153.614 213.083 153.614 214.503C153.614 215.946 153.067 217.075 151.973 217.89C150.879 218.681 149.599 219.077 148.132 219.077Z" fill="#20BF55"/>
<path d="M187.954 262.996V246.552C187.954 245.621 187.954 244.807 187.954 244.108C187.954 243.387 187.954 242.735 187.954 242.153C187.954 240.477 187.709 238.976 187.22 237.65C186.755 236.3 185.94 235.241 184.777 234.473C183.636 233.705 182.053 233.321 180.029 233.321C178.26 233.321 176.689 233.751 175.315 234.612C173.942 235.45 172.86 236.614 172.069 238.103C171.301 239.57 170.917 241.269 170.917 243.201L167.809 241.28C167.809 238.185 168.508 235.439 169.904 233.041C171.324 230.621 173.221 228.724 175.595 227.351C177.969 225.977 180.599 225.291 183.485 225.291C186.464 225.291 188.966 225.873 190.991 227.036C193.039 228.2 194.575 229.853 195.599 231.994C196.647 234.135 197.17 236.649 197.17 239.535C197.17 240.652 197.17 241.909 197.17 243.305C197.17 244.702 197.17 246.075 197.17 247.425V262.996H187.954ZM161.735 262.996V225.919H170.917V262.996H161.735Z" fill="#20BF55"/>
<path d="M205.814 262.996V225.919H214.891V262.996H205.814ZM210.387 219.077C208.897 219.077 207.594 218.681 206.477 217.89C205.383 217.075 204.836 215.946 204.836 214.503C204.836 213.083 205.383 211.978 206.477 211.187C207.594 210.395 208.897 210 210.387 210C211.853 210 213.133 210.395 214.227 211.187C215.321 211.978 215.868 213.083 215.868 214.503C215.868 215.946 215.321 217.075 214.227 217.89C213.133 218.681 211.853 219.077 210.387 219.077Z" fill="#20BF55"/>
<path d="M242.318 263.764C238.408 263.764 234.952 262.961 231.949 261.355C228.947 259.749 226.596 257.491 224.897 254.582C223.198 251.673 222.349 248.263 222.349 244.353C222.349 240.466 223.198 237.091 224.897 234.228C226.596 231.366 228.947 229.166 231.949 227.63C234.952 226.071 238.408 225.291 242.318 225.291C245.251 225.291 247.846 225.721 250.103 226.583C252.361 227.444 254.258 228.596 255.794 230.039C257.353 231.459 258.54 233.03 259.355 234.752C260.17 236.451 260.577 238.15 260.577 239.849C260.577 239.896 260.577 239.942 260.577 239.989C260.577 240.035 260.577 240.082 260.577 240.128H251.465C251.465 240.012 251.453 239.884 251.43 239.744C251.407 239.605 251.384 239.465 251.36 239.325C251.174 238.138 250.697 237.068 249.929 236.114C249.161 235.136 248.137 234.356 246.857 233.774C245.577 233.193 244.029 232.902 242.213 232.902C240.282 232.902 238.513 233.332 236.907 234.193C235.324 235.031 234.056 236.3 233.101 237.999C232.17 239.698 231.705 241.816 231.705 244.353C231.705 246.866 232.17 249.008 233.101 250.776C234.032 252.522 235.289 253.86 236.872 254.791C238.478 255.699 240.258 256.153 242.213 256.153C244.285 256.153 245.972 255.839 247.276 255.21C248.602 254.559 249.603 253.697 250.278 252.627C250.953 251.533 251.337 250.346 251.43 249.066H260.577C260.577 250.788 260.181 252.522 259.39 254.268C258.599 255.99 257.435 257.573 255.899 259.016C254.363 260.459 252.454 261.611 250.173 262.472C247.916 263.333 245.297 263.764 242.318 263.764Z" fill="#20BF55"/>
<path d="M303.765 245.846C303.843 246.182 303.812 246.534 303.675 246.85C303.539 247.167 303.304 247.431 303.006 247.604C302.708 247.777 302.364 247.851 302.022 247.816C301.68 247.781 301.358 247.639 301.101 247.411L289.64 237.047L290.668 244.199C290.703 244.45 290.679 244.706 290.598 244.946C290.516 245.187 290.38 245.405 290.2 245.583L278.077 257.488C281.991 260.947 286.883 263.102 292.077 263.656C297.27 264.21 302.507 263.136 307.062 260.581L301.148 234.126L303.765 245.846Z" fill="#098743"/>
<path d="M269.623 238.695C269.613 241.995 270.261 245.265 271.528 248.313C272.559 250.82 273.999 253.139 275.79 255.174L287.344 243.858L285.797 233.077C285.75 232.76 285.799 232.436 285.937 232.147C286.075 231.858 286.296 231.616 286.572 231.453C286.847 231.289 287.165 231.211 287.485 231.229C287.805 231.247 288.113 231.359 288.369 231.551L276.784 221.114C272.179 225.805 269.606 232.121 269.623 238.695Z" fill="#15A64A"/>
<path d="M324.942 210.465C324.919 209.961 324.714 209.482 324.363 209.119L316.383 216.833C316.616 217.123 316.743 217.485 316.743 217.857V227.315C316.743 227.745 316.572 228.158 316.268 228.462C315.964 228.767 315.551 228.937 315.12 228.937C314.69 228.937 314.277 228.767 313.973 228.462C313.669 228.158 313.498 227.745 313.498 227.315V221.52L301.148 234.126L307.052 260.575C309.046 259.452 310.878 258.064 312.498 256.447C326.315 242.631 325.003 211.772 324.942 210.465Z" fill="#04773B"/>
<path d="M322.955 208.48C321.648 208.419 290.786 207.107 276.969 220.922L276.783 221.113L288.368 231.551C288.404 231.582 288.443 231.61 288.476 231.64L299.502 241.582L297.791 233.966C297.728 233.703 297.733 233.429 297.806 233.169C297.879 232.909 298.018 232.672 298.209 232.482L310.963 219.469H304.65C304.219 219.469 303.807 219.298 303.502 218.994C303.198 218.689 303.027 218.277 303.027 217.846C303.027 217.416 303.198 217.003 303.502 216.699C303.807 216.395 304.219 216.224 304.65 216.224H315.111C315.355 216.224 315.595 216.278 315.815 216.383C316.035 216.488 316.229 216.641 316.382 216.83L324.362 209.12C323.994 208.732 323.489 208.503 322.955 208.48Z" fill="#20BF55"/>
</svg>
